<svg enable-background="new 0 0 239.4 174.6" viewBox="0 0 239.4 174.6" xmlns="http://www.w3.org/2000/svg"><g enable-background="new" fill="#ef8854"><path d="m18.9 110.5h-6.1v-32.9h6.1z"/><path d="m51.7 77.6v32.9h-3.1c-.5 0-.9-.1-1.2-.2-.3-.2-.6-.4-.9-.8l-17.3-22c.1 1 .1 1.9.1 2.8v20.2h-5.3v-32.9h3.2.7c.2 0 .4.1.5.1.1.1.3.2.4.3s.3.3.5.5l17.2 22c0-.5-.1-1.1-.1-1.6s0-1 0-1.4v-20h5.3z"/><path d="m74.3 83.6c-.2.3-.4.5-.6.7-.2.1-.5.2-.8.2s-.7-.1-1-.4c-.4-.2-.8-.5-1.3-.8s-1.1-.5-1.8-.8c-.7-.2-1.5-.4-2.4-.4-.8 0-1.6.1-2.2.3s-1.2.5-1.6.9-.8.8-1 1.3-.3 1.1-.3 1.7c0 .8.2 1.4.6 1.9s1 1 1.7 1.3c.7.4 1.5.7 2.4 1s1.8.6 2.8.9 1.9.7 2.8 1.1 1.7 1 2.4 1.6c.7.7 1.3 1.5 1.7 2.4.4 1 .6 2.1.6 3.5 0 1.5-.3 2.9-.8 4.2s-1.3 2.4-2.2 3.4c-1 1-2.2 1.7-3.6 2.3s-3 .8-4.8.8c-1 0-2.1-.1-3.1-.3s-2-.5-2.9-.9-1.8-.8-2.6-1.4c-.8-.5-1.5-1.1-2.2-1.8l1.8-2.9c.2-.2.3-.4.6-.5.2-.1.5-.2.8-.2.4 0 .8.2 1.2.5s1 .7 1.6 1c.6.4 1.3.7 2.1 1s1.8.5 2.9.5c1.7 0 3.1-.4 4.1-1.2s1.4-2 1.4-3.6c0-.9-.2-1.6-.6-2.1s-1-1-1.7-1.4-1.5-.7-2.4-.9c-.9-.3-1.8-.5-2.8-.8-.9-.3-1.9-.7-2.8-1.1s-1.7-1-2.4-1.7-1.3-1.5-1.7-2.6c-.4-1-.6-2.3-.6-3.8 0-1.2.2-2.4.7-3.5s1.2-2.1 2.1-3 2-1.6 3.4-2.1c1.3-.5 2.9-.8 4.6-.8 1.9 0 3.7.3 5.4.9 1.6.6 3 1.5 4.2 2.5z"/><path d="m90.1 77.6c2.2 0 4.1.3 5.7.8s2.9 1.2 4 2.2c1 .9 1.8 2 2.3 3.3s.8 2.7.8 4.2c0 1.6-.3 3.1-.8 4.4s-1.3 2.5-2.4 3.4c-1.1 1-2.4 1.7-4 2.2s-3.5.8-5.6.8h-4.6v11.6h-6.1v-32.9zm0 16.6c1.1 0 2.1-.1 2.9-.4s1.5-.7 2.1-1.2 1-1.2 1.2-1.9c.3-.8.4-1.6.4-2.5s-.1-1.7-.4-2.4-.7-1.3-1.2-1.8-1.2-.9-2.1-1.1-1.8-.4-3-.4h-4.6v11.8h4.7z"/><path d="m111.5 110.5h-6.1v-32.9h6.1z"/><path d="m142.2 110.5h-5.5c-1 0-1.8-.4-2.3-1.2l-6.9-10.5c-.3-.4-.5-.7-.9-.8-.3-.2-.8-.2-1.4-.2h-2.6v12.9h-6.1v-33.1h10c2.2 0 4.1.2 5.7.7s2.9 1.1 3.9 1.9 1.8 1.8 2.3 3 .7 2.4.7 3.8c0 1.1-.2 2.2-.5 3.1-.3 1-.8 1.9-1.4 2.7s-1.4 1.5-2.3 2.1-1.9 1.1-3.1 1.4c.4.2.8.5 1.1.8s.6.7.9 1.1zm-15.7-17.2c1.2 0 2.2-.1 3-.4s1.6-.7 2.1-1.2c.6-.5 1-1.1 1.2-1.8.3-.7.4-1.5.4-2.3 0-1.7-.6-3-1.7-3.8-1.1-.9-2.8-1.3-5-1.3h-3.9v10.9h3.9z"/><path d="m171.7 110.5h-4.7c-.5 0-1-.1-1.3-.4s-.6-.6-.8-1l-2.5-6.7h-13.6l-2.5 6.7c-.1.3-.4.7-.7 1s-.8.4-1.3.4h-4.8l12.9-32.9h6.2zm-10.8-12.4-4-10.9c-.2-.5-.4-1.1-.6-1.7-.2-.7-.4-1.4-.6-2.2-.2.8-.4 1.5-.6 2.2s-.4 1.3-.6 1.8l-4 10.9h10.4z"/><path d="m200.6 77.6v32.9h-3.1c-.5 0-.9-.1-1.2-.2s-.6-.4-.9-.8l-17.2-21.9c.1 1 .1 1.9.1 2.8v20.2h-5.4v-33h3.2.7c.2 0 .4.1.5.1.1.1.3.2.4.3s.3.3.5.5l17.2 22c0-.5-.1-1.1-.1-1.6s0-1 0-1.4v-20h5.3z"/></g><path d="m228.7 82.7h-9.9v27.9h-6.1v-27.9h-9.9v-5h26v5z" fill="#ef8854"/><path d="m125.2 63.3c.3-.2.6-.3.8-.4 1.7-1 3.3-2.2 4.6-3.8 1.6-1.9 2.6-4.1 3.1-6.5.3-1.3.4-2.6.3-3.9 0-.2 0-.3 0-.5h.1c.1.2.2.3.3.5 1 2 2.1 3.9 3.4 5.8 3.6 5.3 8.1 9.9 13.4 13.6.6.4.7.6.6.6-.3-.1-.5-.2-.8-.3-3.4-1.6-7-2.9-10.7-3.7-1.5-.3-3.1-.6-4.6-.8-1.9-.2-3.8-.4-5.6-.5-1.4-.1-2.8.1-4.2 0-.2-.1-.4-.1-.7-.1z" fill="#93beb9"/><path d="m112.6 63.2c-.5 0-.9-.1-1.3-.1-1.4 0-2.9 0-4.3 0-1 0-1.9.1-2.9.2-.9.1-1.9.2-2.8.3-1.2.2-2.4.4-3.6.7-4 .9-7.8 2.3-11.5 4-.1 0-.2.1-.3.1h-.1s0 0 0-.1c.2-.1.4-.3.6-.4 1.7-1.2 3.3-2.4 4.8-3.7 2.8-2.5 5.3-5.2 7.5-8.2 1.8-2.4 3.3-4.9 4.7-7.6.1-.2.2-.3.3-.6v2.1c.2 4.5 2 8.2 5.5 11 .9.7 1.8 1.3 2.8 1.8.2.3.3.4.6.5z" fill="#93beb9"/><path d="m118.9 11.5c.7 8.1 3 15.6 7 22.5.5.8 1 1.6 1.4 2.4v.2c-.1 0-.1 0-.2 0-1-.6-2-1-3-1.4-2.1-.8-4.2-1.1-6.4-1-1.6.1-3.1.5-4.6 1.1-.9.4-1.8.8-2.6 1.3-.1 0-.1 0-.2.1 0-.1 0-.1 0-.2.7-1.2 1.4-2.3 2-3.5 2.4-4.4 4.1-9 5.2-13.8.4-1.8.7-3.6.9-5.4.1-.6.1-1.1.2-1.7.2-.2.2-.3.3-.6z" fill="#93beb9"/><g fill="#919191"><path d="m91 126.4h4.3v5.1c-.6.5-1.3.8-2 1s-1.5.3-2.3.3c-1 0-2-.2-2.8-.5s-1.5-.8-2.1-1.3c-.6-.6-1-1.2-1.4-2s-.5-1.6-.5-2.6c0-.9.2-1.8.5-2.6s.7-1.5 1.3-2c.6-.6 1.3-1 2.1-1.3s1.7-.5 2.7-.5c.5 0 1 0 1.4.1s.9.2 1.2.3c.4.1.7.3 1 .5s.6.4.9.7l-.7 1.2c-.1.2-.3.3-.4.3-.2 0-.4 0-.6-.1s-.4-.2-.6-.3-.4-.2-.6-.3-.5-.1-.7-.2c-.3 0-.6-.1-.9-.1-.6 0-1.1.1-1.6.3s-.9.5-1.2.9-.6.8-.8 1.3-.3 1.1-.3 1.7c0 .7.1 1.3.3 1.8s.5 1 .8 1.4c.4.4.8.7 1.3.9s1 .3 1.7.3c.4 0 .8 0 1.1-.1s.6-.2.9-.3v-2.1h-1.4c-.2 0-.3 0-.4-.1s-.1-.2-.1-.3v-1.4z"/><path d="m110.8 132.7h-2.3c-.4 0-.8-.2-.9-.5l-2.4-3.8c-.1-.1-.2-.3-.3-.3-.1-.1-.3-.1-.5-.1h-.9v4.8h-2.6v-12.5h3.9c.9 0 1.6.1 2.2.3s1.1.4 1.5.8c.4.3.7.7.9 1.1s.3.9.3 1.5c0 .4-.1.8-.2 1.2s-.3.7-.5 1-.5.6-.8.8-.7.4-1.1.6c.2.1.3.2.5.3.1.1.3.3.4.5zm-6.1-6.5c.4 0 .8-.1 1.1-.2s.6-.3.7-.4c.2-.2.3-.4.4-.7s.1-.5.1-.8c0-.6-.2-1-.6-1.4-.4-.3-1-.5-1.8-.5h-1.3v3.9h1.4z"/><g enable-background="new"><path d="m127.3 126.5c0 .9-.2 1.8-.5 2.5s-.7 1.5-1.3 2-1.2 1-2 1.3-1.7.5-2.6.5c-1 0-1.8-.2-2.6-.5s-1.5-.8-2-1.3-1-1.2-1.3-2-.5-1.6-.5-2.5.2-1.8.5-2.5.7-1.4 1.3-2 1.2-1 2-1.3 1.7-.5 2.6-.5c1 0 1.8.2 2.6.5s1.5.8 2 1.3 1 1.2 1.3 2 .5 1.6.5 2.5zm-2.7 0c0-.7-.1-1.2-.3-1.8-.2-.5-.4-1-.7-1.3-.3-.4-.7-.6-1.2-.8s-1-.3-1.6-.3-1.1.1-1.6.3-.9.5-1.2.8-.6.8-.7 1.3c-.2.5-.3 1.1-.3 1.8s.1 1.2.3 1.8.4 1 .7 1.3.7.6 1.2.8 1 .3 1.6.3 1.1-.1 1.6-.3.9-.5 1.2-.8c.3-.4.6-.8.7-1.3s.3-1.1.3-1.8z"/><path d="m137.7 130.7c.4 0 .8-.1 1.1-.2s.6-.3.8-.6.4-.6.5-.9c.1-.4.2-.8.2-1.2v-7.4h2.6v7.4c0 .8-.1 1.5-.4 2.1s-.6 1.2-1 1.6c-.5.5-1 .8-1.7 1.1s-1.4.4-2.2.4-1.5-.1-2.2-.4-1.2-.6-1.7-1.1-.8-1-1-1.6-.4-1.3-.4-2.1v-7.4h2.6v7.4c0 .5.1.9.2 1.2.1.4.3.7.5.9s.5.5.8.6c.5.1.9.2 1.3.2z"/></g><path d="m153.1 120.3c.9 0 1.6.1 2.2.3s1.1.5 1.5.8c.4.4.7.8.9 1.3s.3 1 .3 1.6-.1 1.2-.3 1.7-.5.9-.9 1.3-.9.7-1.5.9-1.3.3-2.2.3h-1.6v4.3h-2.6v-12.5zm0 6.2c.8 0 1.4-.2 1.8-.6s.6-.9.6-1.6c0-.3 0-.6-.1-.8-.1-.3-.2-.5-.4-.7s-.4-.3-.7-.4-.6-.1-1-.1h-1.6v4.2z"/></g><path d="m113 54.9c-1.3 0-2.5-1.1-2.5-2.5 0-1.5 1.2-2.6 2.6-2.6 1.3 0 2.6 1.1 2.5 2.6 0 1.5-1.3 2.6-2.6 2.5z" fill="#ef8854"/><path d="m118.8 44.6c-1.2 0-2.5-1-2.5-2.6 0-1.2.9-2.5 2.6-2.5 1.4 0 2.6 1.2 2.5 2.7 0 1.1-1 2.5-2.6 2.4z" fill="#ef8854"/><path d="m124.8 49.8c1.3 0 2.5 1 2.5 2.5s-1.1 2.6-2.5 2.6c-1.5 0-2.5-1.3-2.5-2.5-.1-1.6 1.3-2.6 2.5-2.6z" fill="#ef8854"/><path d="m73.3 126.2h-61.8" fill="none" stroke="#919191" stroke-miterlimit="10"/><path d="m229.7 126.2h-61.8" fill="none" stroke="#919191" stroke-miterlimit="10"/><g fill="#93beb9" opacity=".6"><text font-family="'Roboto-Light'" font-size="11.31" transform="translate(48.49 161.65)">a</text><text font-family="'Roboto-Light'" font-size="11.31" transform="translate(144.23 161.43)">company</text><path d="m87.1 156.4v5.3h-3.5v-15.4h5.4c3.9 0 5.8 1.6 5.8 4.9 0 1.5-.6 2.8-1.7 3.7s-2.6 1.4-4.4 1.4zm0-7.4v4.8h1.4c1.8 0 2.8-.8 2.8-2.4s-.9-2.4-2.8-2.4z"/><path d="m105.3 157.2h-7.2c.1 1.6 1.1 2.4 3 2.4 1.2 0 2.3-.3 3.2-.9v2.4c-1 .5-2.3.8-3.9.8-1.8 0-3.1-.5-4.1-1.5s-1.5-2.4-1.5-4.1.5-3.3 1.6-4.3c1.1-1.1 2.3-1.6 3.9-1.6s2.8.5 3.7 1.4 1.3 2.2 1.3 3.9zm-3.1-2.1c0-1.6-.6-2.4-1.9-2.4-.5 0-1 .2-1.4.7s-.6 1-.7 1.7z"/><path d="m116.1 161.7h-3.2v-1.6c-.7 1.2-1.8 1.8-3.3 1.8-1.1 0-1.9-.3-2.5-.9s-.9-1.4-.9-2.4c0-2.1 1.3-3.4 3.8-3.7l3-.4c0-1.2-.7-1.8-1.9-1.8s-2.6.4-3.7 1.2v-2.6c.5-.2 1.1-.5 1.9-.6.8-.2 1.6-.3 2.2-.3 3.1 0 4.7 1.6 4.7 4.7zm-3.2-4.5v-.7l-2 .3c-1.1.1-1.7.6-1.7 1.5 0 .4.1.7.4.9s.6.4 1.1.4c.6 0 1.2-.2 1.6-.7s.6-1 .6-1.7z"/><path d="m124.9 153.8c-.4-.2-.9-.3-1.4-.3-.7 0-1.3.3-1.7.8s-.6 1.3-.6 2.2v5.2h-3.4v-11h3.4v2c.5-1.5 1.5-2.2 2.9-2.2.4 0 .6 0 .8.1z"/><path d="m129.4 158c0 .5.1.8.3 1.1.2.2.5.4.9.4.2 0 .4 0 .6-.1s.4-.1.6-.1v2.4c-.4.1-.8.2-1.3.3-.4.1-.9.1-1.4.1-.4 0-.9-.1-1.2-.2s-.7-.4-.9-.6-.5-.6-.6-1-.2-.9-.2-1.4v-13.3h3.4v12.4z"/><path d="m132.6 161.4v-2.7c.6.3 1.1.6 1.7.8s1.1.2 1.6.2c.6 0 1.1-.1 1.4-.2.4-.2.5-.4.5-.8 0-.2-.1-.4-.2-.5-.2-.1-.4-.3-.6-.4s-.5-.2-.8-.3-.6-.2-.8-.3c-.4-.2-.8-.3-1.1-.5s-.6-.4-.8-.7c-.2-.2-.4-.5-.5-.9s-.2-.7-.2-1.2c0-.6.1-1.1.4-1.6.3-.4.6-.8 1.1-1.1.4-.3 1-.5 1.5-.6.6-.1 1.2-.2 1.8-.2.5 0 1 0 1.5.1s1 .2 1.5.3v2.6c-.4-.2-.9-.4-1.4-.6-.5-.1-1-.2-1.4-.2-.2 0-.4 0-.6.1-.2 0-.4.1-.5.2s-.3.2-.4.3-.1.2-.1.4.1.4.2.5.3.3.5.4.4.2.7.3.5.2.8.2c.4.2.9.3 1.2.5.4.2.7.4.9.6.3.2.5.5.6.9.1.3.2.7.2 1.2 0 .6-.1 1.2-.4 1.7s-.6.8-1.1 1.1-1 .5-1.6.6-1.2.2-1.9.2c-1.6.1-2.7-.1-3.7-.4z"/><path d="m65.9 153.8c0-4.9 3.9-8.8 8.8-8.8 1.5 0 3 .4 4.2 1.1-2.3-3.1-6-5.1-10.2-5.1-7 0-12.8 5.7-12.8 12.8s5.7 12.8 12.8 12.8c4.1 0 7.7-1.9 10.1-4.9-1.2.7-2.6 1-4.1 1-4.9-.1-8.8-4.1-8.8-8.9zm-.8 8.3h-2.9v-13.6h-1.3l-1.7-3h5.9z"/><circle cx="74.7" cy="153.8" r="6.1"/></g></svg>